<svg version="1.1" xmlns="http://www.w3.org/2000/svg" xmlns:xlink="http://www.w3.org/1999/xlink" x="0px" y="0px" viewBox="0 0 230 43.8" style="enable-background:new 0 0 230 43.8;" xml:space="preserve">
	<g>
		<path class="st0" fill="#73B4D7" d="M33.1,26.3l-2.2-3.6L21.6,7.7c-1.5-2.4-0.7-5.5,1.6-6.9C24.1,0.2,25,0,25.9,0c1.7,0,3.3,0.8,4.3,2.4l5.1,8.2
			l2.4,3.8v0c0.1,0.1,0.1,0.2,0.2,0.3C42.7,22.8,39.3,24.5,33.1,26.3L33.1,26.3z"/>
		<path class="st1" fill="#F5AA19" d="M51,36.1L42.3,22c0,0,0,0,0,0c2.2,3.6-2,5.4-7.4,7.1v0l1.7,2.8l5.9,9.5c1.5,2.4,4.6,3.1,6.9,1.6
			C51.8,41.6,52.5,38.5,51,36.1L51,36.1z"/>
		<path class="st1" fill="#F5AA19" d="M25.9,0c0.9,0,1.8,0.2,2.6,0.8c2.4,1.5,3.1,4.6,1.6,6.9L9.3,41.4c-1.5,2.4-4.6,3.1-6.9,1.6
			c-2.4-1.5-3.1-4.6-1.6-6.9L21.6,2.4C22.6,0.8,24.2,0,25.9,0L25.9,0z"/>
		<path class="st2" fill="#502391"  d="M36.6,31.9C36.6,31.9,36.6,31.9,36.6,31.9c-5.6,0.9-12.9,1-16.5,3.6c3.9-6.2,24.1-5.5,22.2-13.5c0,0,0,0,0,0
			C46.5,28.9,42.5,30.9,36.6,31.9L36.6,31.9z"/>
		<path class="st2" fill="#502391" d="M33.1,26.3c-6.8,1.9-17,4.1-23.8,15.1c-1.5,2.4-4.6,3.1-6.9,1.6c-2.4-1.5-3.1-4.6-1.6-6.9
			c7.4-12,21.2-12.5,30.2-13.4c6.7-0.7,10.7-1.6,6.9-8C42.7,22.8,39.3,24.5,33.1,26.3L33.1,26.3z"/>
		<path class="st2" fill="#502391" d="M58.5,32.3h4.1l2.1-5.3h10l2.1,5.3H81l-7.8-18.7c-0.7-1.8-1.6-2.3-3.4-2.3c-1.9,0-2.7,0.6-3.4,2.3L58.5,32.3
			L58.5,32.3z M69.1,15.8c0.1-0.3,0.3-0.9,0.6-0.9c0.3,0,0.5,0.6,0.6,0.9l3.4,8.5h-8L69.1,15.8L69.1,15.8z M87.3,32.3v-7.4H97
			c1.2,0,2.4-0.4,3.2-1c1.6-1.3,1.8-4,1.8-5.7c0-1.8-0.1-4.1-1.6-5.5c-1.3-1.2-3-1.2-4.1-1.2h-9.9c-0.7,0-1.7,0.1-2.3,0.8
			c-0.7,0.7-0.7,1.5-0.7,2.3v17.7H87.3L87.3,32.3z M87.3,21.8v-5.9c0-0.4,0-0.7,0.3-1c0.3-0.3,0.7-0.3,0.9-0.3h6.3
			c0.7,0,1.8,0,2.4,0.7c0.7,0.7,0.7,1.9,0.7,2.9c0,0.8-0.1,2.1-0.7,2.9c-0.7,0.8-1.7,0.8-2.6,0.8H87.3L87.3,21.8z M101.1,29.2h-1.8
			v3.1h24.1v-3.1h-1.8l-7-15.7c-0.7-1.5-1.5-2.2-3.3-2.2c-2.1,0-2.8,1-3.3,2.2L101.1,29.2L101.1,29.2z M110.9,15.7
			c0.1-0.2,0.3-0.7,0.5-0.7s0.4,0.5,0.5,0.7l5.8,13.5h-12.6L110.9,15.7L110.9,15.7z M144.7,32.3V15c0-1-0.1-3.7-3.2-3.7
			c-1.4,0-2.3,0.5-3.5,2.3l-8.4,13.7c-0.2,0.3-0.3,0.7-0.6,0.7c-0.4,0-0.4-0.5-0.4-1l0.1-15.5H125V29c0,1.2,0.1,3.6,3.1,3.6
			c2.1,0,2.7-1,3.3-2l8.6-13.8c0.3-0.5,0.5-1,0.8-1c0.3,0,0.3,0.4,0.3,0.7l-0.1,15.8H144.7L144.7,32.3z M167,11.5H163V20h-10.8v-8.5
			h-3.9v20.8h3.9v-9.1H163v9.1h3.9V11.5L167,11.5z M187.2,32.3v-3.1h-11.1c-0.6,0-1.1,0-1.3-0.3c-0.2-0.1-0.3-0.5-0.3-0.8v-4.9h12.3
			v-3.1h-12.3v-4.2c0-0.3,0-0.7,0.3-1c0.3-0.3,0.7-0.3,1.1-0.3h11.2v-3.1h-13.3c-0.8,0-1.8,0.1-2.5,0.8c-0.4,0.5-0.7,1.3-0.7,2.2
			v14.7c0,0.8,0.1,1.8,0.8,2.4c0.7,0.7,1.5,0.7,2.4,0.7H187.2L187.2,32.3z M188.4,32.3h4.2l6.6-16.6c0.1-0.2,0.2-0.6,0.5-0.6
			c0.3,0,0.4,0.3,0.5,0.6l6.6,16.6h4.2l-8-19.1c-0.4-1-1-2-3.2-2c-2.2,0-2.8,1-3.2,2L188.4,32.3L188.4,32.3z M211.4,11.5v17.6
			c0,0.8,0.1,1.6,0.7,2.3c0.2,0.3,0.8,0.8,1.9,0.8h11c2.5,0,3.7-1.3,4.1-1.8c0.1-0.2,1-1.4,1-4.3c0-1.5-0.2-3.1-0.8-4.1
			c-1-1.9-3.1-2-4.1-2h-9.9v-8.5H211.4L211.4,11.5z M215.3,23.2h7.8c0.7,0,1.4,0,2,0.4c0.8,0.6,0.8,1.6,0.8,2.5c0,0.9,0,2-0.7,2.6
			c-0.7,0.6-2,0.6-2.3,0.6h-6.3c-0.4,0-0.9,0-1.1-0.3c-0.2-0.2-0.2-0.8-0.2-1V23.2L215.3,23.2z"/>
	</g>
</svg>