<svg version="1.1" xmlns="http://www.w3.org/2000/svg" xmlns:xlink="http://www.w3.org/1999/xlink" x="0px" y="0px" viewBox="0 0 75 93.5"
	 style="enable-background:new 0 0 75 93.5;" xml:space="preserve">
<switch>
	<g>
		<rect class="st0" fill="#fff" width="75" height="75"/>
		<rect x="37" y="68.5" class="st1" fill="#502391" width="1" height="25"/>
		<g>
			<path class="st2" fill="#73B4D7" d="M44.1,39l-2-3.3L33.6,22c-1.3-2.2-0.7-5,1.5-6.3c0.8-0.5,1.6-0.7,2.4-0.7c1.5,0,3,0.8,3.9,2.2l4.6,7.5
				l2.2,3.5v0c0.1,0.1,0.1,0.2,0.2,0.3C52.8,35.8,49.7,37.3,44.1,39L44.1,39z"/>
			<path class="st3" fill="#F5AA19" d="M60.5,47.9l-8-12.9c0,0,0,0,0,0c2,3.3-1.8,5-6.8,6.5v0l1.6,2.5l5.4,8.7c1.3,2.2,4.2,2.8,6.3,1.5
				C61.1,52.9,61.8,50.1,60.5,47.9L60.5,47.9z"/>
			<path class="st3" fill="#F5AA19" d="M37.5,14.9c0.8,0,1.7,0.2,2.4,0.7c2.2,1.3,2.8,4.2,1.5,6.3l-19,30.8c-1.3,2.2-4.2,2.8-6.3,1.5
				c-2.2-1.3-2.8-4.2-1.5-6.3l19-30.8C34.5,15.7,36,14.9,37.5,14.9L37.5,14.9z"/>
			<path class="st1" fill="#502391" d="M47.2,44C47.2,44,47.2,44,47.2,44c-5.1,0.9-11.8,0.9-15.1,3.3c3.5-5.7,22-5.1,20.3-12.3c0,0,0,0,0,0
				C56.3,41.3,52.7,43.1,47.2,44L47.2,44z"/>
			<path class="st1" fill="#502391" d="M44.1,39c-6.2,1.8-15.5,3.7-21.7,13.8c-1.3,2.2-4.2,2.8-6.3,1.5c-2.2-1.3-2.8-4.2-1.5-6.3
				C21.3,37,33.9,36.5,42.1,35.7c6.2-0.6,9.7-1.5,6.3-7.3C52.8,35.8,49.7,37.3,44.1,39L44.1,39z"/>
		</g>
	</g>
</switch>
</svg>
