<?xml version="1.0" encoding="utf-8"?><svg viewBox="0 0 950.4 804" xmlns="http://www.w3.org/2000/svg" xmlns:xlink="http://www.w3.org/1999/xlink"><style>:root>svg{display:none}:root>svg:target{display:block}</style><svg viewBox="0 0 451.847 451.847" id="arrow-down" xmlns="http://www.w3.org/2000/svg"><path d="M225.923 354.706c-8.098 0-16.195-3.092-22.369-9.263L9.27 151.157c-12.359-12.359-12.359-32.397 0-44.751 12.354-12.354 32.388-12.354 44.748 0l171.905 171.915 171.906-171.909c12.359-12.354 32.391-12.354 44.744 0 12.365 12.354 12.365 32.392 0 44.751L248.292 345.449c-6.177 6.172-14.274 9.257-22.369 9.257z"/></svg><svg viewBox="0 0 230 43.8" id="logo" xmlns="http://www.w3.org/2000/svg"><path class="bst0" fill="#73B4D7" d="M33.1 26.3l-2.2-3.6-9.3-15c-1.5-2.4-.7-5.5 1.6-6.9.9-.6 1.8-.8 2.7-.8 1.7 0 3.3.8 4.3 2.4l5.1 8.2 2.4 3.8c.1.1.1.2.2.3 4.8 8.1 1.4 9.8-4.8 11.6z"/><path class="bst1" fill="#F5AA19" d="M51 36.1L42.3 22c2.2 3.6-2 5.4-7.4 7.1l1.7 2.8 5.9 9.5c1.5 2.4 4.6 3.1 6.9 1.6 2.4-1.4 3.1-4.5 1.6-6.9zM25.9 0c.9 0 1.8.2 2.6.8 2.4 1.5 3.1 4.6 1.6 6.9L9.3 41.4c-1.5 2.4-4.6 3.1-6.9 1.6C0 41.5-.7 38.4.8 36.1L21.6 2.4C22.6.8 24.2 0 25.9 0z"/><path class="bst2" fill="#502391" d="M36.6 31.9c-5.6.9-12.9 1-16.5 3.6C24 29.3 44.2 30 42.3 22c4.2 6.9.2 8.9-5.7 9.9z"/><path class="bst2" fill="#502391" d="M33.1 26.3c-6.8 1.9-17 4.1-23.8 15.1-1.5 2.4-4.6 3.1-6.9 1.6C0 41.5-.7 38.4.8 36.1 8.2 24.1 22 23.6 31 22.7c6.7-.7 10.7-1.6 6.9-8 4.8 8.1 1.4 9.8-4.8 11.6zM58.5 32.3h4.1l2.1-5.3h10l2.1 5.3H81l-7.8-18.7c-.7-1.8-1.6-2.3-3.4-2.3-1.9 0-2.7.6-3.4 2.3l-7.9 18.7zm10.6-16.5c.1-.3.3-.9.6-.9s.5.6.6.9l3.4 8.5h-8l3.4-8.5zm18.2 16.5v-7.4H97c1.2 0 2.4-.4 3.2-1 1.6-1.3 1.8-4 1.8-5.7 0-1.8-.1-4.1-1.6-5.5-1.3-1.2-3-1.2-4.1-1.2h-9.9c-.7 0-1.7.1-2.3.8-.7.7-.7 1.5-.7 2.3v17.7h3.9zm0-10.5v-5.9c0-.4 0-.7.3-1 .3-.3.7-.3.9-.3h6.3c.7 0 1.8 0 2.4.7.7.7.7 1.9.7 2.9 0 .8-.1 2.1-.7 2.9-.7.8-1.7.8-2.6.8h-7.3v-.1zm13.8 7.4h-1.8v3.1h24.1v-3.1h-1.8l-7-15.7c-.7-1.5-1.5-2.2-3.3-2.2-2.1 0-2.8 1-3.3 2.2l-6.9 15.7zm9.8-13.5c.1-.2.3-.7.5-.7s.4.5.5.7l5.8 13.5h-12.6l5.8-13.5zm33.8 16.6V15c0-1-.1-3.7-3.2-3.7-1.4 0-2.3.5-3.5 2.3l-8.4 13.7c-.2.3-.3.7-.6.7-.4 0-.4-.5-.4-1l.1-15.5H125V29c0 1.2.1 3.6 3.1 3.6 2.1 0 2.7-1 3.3-2l8.6-13.8c.3-.5.5-1 .8-1 .3 0 .3.4.3.7l-.1 15.8h3.7zM167 11.5h-4V20h-10.8v-8.5h-3.9v20.8h3.9v-9.1H163v9.1h3.9V11.5h.1zm20.2 20.8v-3.1h-11.1c-.6 0-1.1 0-1.3-.3-.2-.1-.3-.5-.3-.8v-4.9h12.3v-3.1h-12.3v-4.2c0-.3 0-.7.3-1 .3-.3.7-.3 1.1-.3h11.2v-3.1h-13.3c-.8 0-1.8.1-2.5.8-.4.5-.7 1.3-.7 2.2v14.7c0 .8.1 1.8.8 2.4.7.7 1.5.7 2.4.7h13.4zm1.2 0h4.2l6.6-16.6c.1-.2.2-.6.5-.6s.4.3.5.6l6.6 16.6h4.2l-8-19.1c-.4-1-1-2-3.2-2s-2.8 1-3.2 2l-8.2 19.1zm23-20.8v17.6c0 .8.1 1.6.7 2.3.2.3.8.8 1.9.8h11c2.5 0 3.7-1.3 4.1-1.8.1-.2 1-1.4 1-4.3 0-1.5-.2-3.1-.8-4.1-1-1.9-3.1-2-4.1-2h-9.9v-8.5h-3.9zm3.9 11.7h7.8c.7 0 1.4 0 2 .4.8.6.8 1.6.8 2.5 0 .9 0 2-.7 2.6-.7.6-2 .6-2.3.6h-6.3c-.4 0-.9 0-1.1-.3-.2-.2-.2-.8-.2-1v-4.8z"/></svg><svg viewBox="0 0 950.4 804" id="logo-big" xmlns="http://www.w3.org/2000/svg"><path class="cst0" d="M555.2 397.6L487.4 288l84.1-136c10.2-16.4 15.6-34.6 16.6-52.7l59 95.5 38.5 62.2c24.8 62.4 23 81.7 11.2 102-16 27.7-103.4 34.6-131.6 37.5l-10 1.1zM936.6 662.9L829.1 489c.5 16.4-2.7 32.6-11.5 47.7-25.3 43.2-87.2 58.8-134.7 67.3l96.5 156.1c26.8 43.4 83.8 56.9 127.2 30.1 43.3-26.9 56.8-83.8 30-127.3zM475.3 0c16.6 0 33.4 4.5 48.5 13.8 43.4 26.8 56.9 83.8 30 127.2L382.3 418.4c-36.2 6.2-72.2 14.3-108.4 25.7-71.2 22.5-134.3 55.3-187.5 101.3L396.5 43.8C414 15.6 444.3 0 475.3 0z"/><path class="cst0" d="M671 585c-103 17.4-236.9 18.8-302.8 65.9 70.7-114.6 442.9-101.9 407.6-248 .1.1.1.1.1.2C854 530.3 779.9 566.6 671 585zm-63.3-102.4C483.8 518.3 296.5 557.1 171 760.1c-26.8 43.4-83.8 56.9-127.2 30-43.4-26.8-56.8-83.7-30-127.2 136-219.9 389.9-228.8 553.6-245.6 123.7-12.7 195.8-29.9 126.9-145.9 89 147.4 26.2 178.8-86.6 211.2z"/></svg><svg viewBox="0 0 75 93.5" id="map-pin" xmlns="http://www.w3.org/2000/svg"><switch><g><path class="dst0" fill="#fff" d="M0 0h75v75H0z"/><path class="dst1" fill="#502391" d="M37 68.5h1v25h-1z"/><path class="dst2" fill="#73B4D7" d="M44.1 39l-2-3.3L33.6 22c-1.3-2.2-.7-5 1.5-6.3.8-.5 1.6-.7 2.4-.7 1.5 0 3 .8 3.9 2.2l4.6 7.5 2.2 3.5c.1.1.1.2.2.3 4.4 7.3 1.3 8.8-4.3 10.5z"/><path class="dst3" fill="#F5AA19" d="M60.5 47.9l-8-12.9c2 3.3-1.8 5-6.8 6.5l1.6 2.5 5.4 8.7c1.3 2.2 4.2 2.8 6.3 1.5 2.1-1.3 2.8-4.1 1.5-6.3zM37.5 14.9c.8 0 1.7.2 2.4.7 2.2 1.3 2.8 4.2 1.5 6.3l-19 30.8c-1.3 2.2-4.2 2.8-6.3 1.5-2.2-1.3-2.8-4.2-1.5-6.3l19-30.8c.9-1.4 2.4-2.2 3.9-2.2z"/><path class="dst1" fill="#502391" d="M47.2 44c-5.1.9-11.8.9-15.1 3.3 3.5-5.7 22-5.1 20.3-12.3 3.9 6.3.3 8.1-5.2 9z"/><path class="dst1" fill="#502391" d="M44.1 39c-6.2 1.8-15.5 3.7-21.7 13.8-1.3 2.2-4.2 2.8-6.3 1.5-2.2-1.3-2.8-4.2-1.5-6.3 6.7-11 19.3-11.5 27.5-12.3 6.2-.6 9.7-1.5 6.3-7.3 4.4 7.4 1.3 8.9-4.3 10.6z"/></g></switch></svg><svg viewBox="0 0 513.64 513.64" id="phone" xmlns="http://www.w3.org/2000/svg"><path d="M499.66 376.96l-71.68-71.68c-25.6-25.6-69.12-15.359-79.36 17.92-7.68 23.041-33.28 35.841-56.32 30.72-51.2-12.8-120.32-79.36-133.12-133.12-7.68-23.041 7.68-48.641 30.72-56.32 33.28-10.24 43.52-53.76 17.92-79.36l-71.68-71.68c-20.48-17.92-51.2-17.92-69.12 0L18.38 62.08c-48.64 51.2 5.12 186.88 125.44 307.2s256 176.641 307.2 125.44l48.64-48.64c17.921-20.48 17.921-51.2 0-69.12z"/></svg><svg viewBox="0 0 512 512" id="pin" xmlns="http://www.w3.org/2000/svg"><path d="M256 0C153.755 0 70.573 83.182 70.573 185.426c0 126.888 165.939 313.167 173.004 321.035 6.636 7.391 18.222 7.378 24.846 0 7.065-7.868 173.004-194.147 173.004-321.035C441.425 83.182 358.244 0 256 0zm0 278.719c-51.442 0-93.292-41.851-93.292-93.293S204.559 92.134 256 92.134s93.291 41.851 93.291 93.293-41.85 93.292-93.291 93.292z"/></svg></svg>